<?xml version="1.0" encoding="UTF-8"?>
<svg xmlns="http://www.w3.org/2000/svg" xmlns:xlink="http://www.w3.org/1999/xlink" width="512pt" height="640pt" viewBox="0 0 512 640">
<path fill-rule="evenodd" fill="rgb(50.588989%, 66.268921%, 84.309387%)" fill-opacity="1" d="M 433.546875 262.480469 L 433.78125 265.515625 L 433.972656 268.558594 L 434.109375 271.617188 L 434.195312 274.683594 L 434.230469 277.761719 L 434.210938 280.847656 L 434.132812 283.9375 L 434.003906 287.039062 L 433.816406 290.144531 L 433.570312 293.253906 L 433.265625 296.367188 L 432.898438 299.476562 L 432.472656 302.589844 L 431.984375 305.703125 L 431.429688 308.808594 L 431.140625 310.261719 C 420.609375 340.054688 402.425781 366.230469 378.957031 386.433594 L 377.144531 387.644531 L 374.503906 389.347656 L 371.84375 391.003906 L 369.15625 392.613281 L 366.453125 394.175781 L 363.730469 395.6875 L 360.984375 397.152344 L 358.226562 398.570312 L 355.449219 399.941406 L 352.65625 401.265625 L 349.847656 402.542969 L 347.023438 403.769531 L 344.1875 404.949219 L 341.339844 406.082031 L 338.476562 407.167969 L 335.605469 408.207031 L 332.71875 409.195312 L 329.828125 410.140625 L 326.925781 411.035156 L 323.875 411.523438 L 320.761719 411.777344 L 317.664062 411.972656 L 314.574219 412.109375 L 311.496094 412.1875 L 308.433594 412.21875 L 305.398438 412.230469 L 302.386719 412.222656 L 299.394531 412.199219 L 296.421875 412.160156 L 293.472656 412.097656 L 290.542969 412.023438 L 287.628906 411.933594 L 284.734375 411.824219 L 281.855469 411.699219 L 278.988281 411.558594 L 276.136719 411.402344 L 273.300781 411.234375 L 272.816406 411.203125 L 272.816406 261.25 L 433.429688 261.25 Z M 272.816406 73.054688 L 274.453125 73.296875 L 277.519531 73.800781 L 280.574219 74.359375 L 283.613281 74.96875 L 286.636719 75.625 L 289.644531 76.332031 L 292.636719 77.089844 L 295.609375 77.898438 L 298.5625 78.757812 L 301.5 79.664062 L 304.414062 80.625 L 307.304688 81.632812 L 310.175781 82.691406 L 313.023438 83.800781 L 315.84375 84.960938 L 318.640625 86.167969 L 321.410156 87.429688 L 324.152344 88.738281 L 326.863281 90.097656 L 329.546875 91.503906 L 332.195312 92.960938 L 334.816406 94.464844 L 337.402344 96.019531 L 339.949219 97.621094 L 342.464844 99.273438 L 344.9375 100.980469 L 347.371094 102.726562 L 349.769531 104.519531 L 352.125 106.355469 L 354.445312 108.230469 L 356.722656 110.144531 L 358.964844 112.097656 L 361.164062 114.085938 L 363.328125 116.105469 L 365.453125 118.15625 L 367.535156 120.238281 L 369.582031 122.351562 L 371.59375 124.488281 L 373.5625 126.652344 L 375.5 128.84375 L 377.398438 131.054688 L 379.257812 133.292969 L 381.085938 135.550781 L 382.878906 137.828125 L 384.636719 140.121094 L 386.363281 142.4375 L 388.054688 144.769531 L 389.714844 147.121094 L 391.339844 149.484375 L 392.9375 151.867188 L 394.507812 154.261719 L 396.046875 156.675781 L 397.554688 159.097656 L 399.035156 161.539062 L 400.488281 163.992188 L 401.917969 166.457031 L 403.320312 168.933594 L 404.695312 171.425781 L 406.046875 173.933594 L 407.375 176.449219 L 408.675781 178.984375 L 409.949219 181.53125 L 411.195312 184.089844 L 412.417969 186.667969 L 413.613281 189.261719 L 414.78125 191.867188 L 415.917969 194.492188 L 417.03125 197.128906 L 418.117188 199.785156 L 419.171875 202.457031 L 420.199219 205.144531 L 421.195312 207.851562 L 422.160156 210.574219 L 423.097656 213.3125 L 424.003906 216.070312 L 424.875 218.84375 L 425.714844 221.632812 L 426.523438 224.441406 L 427.292969 227.269531 L 428.03125 230.113281 L 428.734375 232.972656 L 429.398438 235.851562 L 430.023438 238.746094 L 430.222656 239.734375 L 272.816406 239.734375 Z M 251.304688 239.734375 L 111.753906 239.734375 L 111.683594 237.335938 L 111.644531 234.683594 L 111.648438 232.023438 L 111.695312 229.359375 L 111.789062 226.691406 L 111.921875 224.019531 L 112.101562 221.34375 L 112.328125 218.664062 L 112.601562 215.984375 L 112.921875 213.308594 L 113.292969 210.628906 L 113.71875 207.953125 L 114.195312 205.285156 L 114.722656 202.617188 L 115.300781 199.957031 L 115.933594 197.304688 L 116.621094 194.660156 L 117.355469 192.027344 L 118.148438 189.402344 L 118.992188 186.792969 L 119.886719 184.195312 L 120.835938 181.613281 L 121.839844 179.046875 L 122.898438 176.496094 L 124.011719 173.96875 L 125.175781 171.460938 L 126.398438 168.976562 L 127.671875 166.515625 L 129.003906 164.082031 L 130.386719 161.675781 L 131.828125 159.300781 L 133.324219 156.957031 L 134.875 154.648438 L 136.476562 152.375 L 138.136719 150.140625 L 139.851562 147.945312 L 141.617188 145.792969 L 143.441406 143.683594 L 145.3125 141.625 L 147.242188 139.609375 L 149.21875 137.648438 L 151.25 135.742188 L 153.328125 133.890625 L 155.457031 132.097656 L 157.632812 130.363281 L 159.855469 128.6875 L 161.460938 126.261719 L 163.121094 123.855469 L 164.835938 121.46875 L 166.601562 119.105469 L 168.421875 116.761719 L 170.296875 114.445312 L 171.261719 113.289062 C 171.320312 113.339844 171.386719 113.386719 171.464844 113.425781 C 172.546875 113.425781 173.730469 113.425781 174.910156 113.527344 C 175.105469 112.9375 175.304688 112.34375 175.5 111.753906 C 176.972656 111.441406 178.449219 111.144531 179.929688 110.871094 C 179.730469 110.28125 179.925781 109.792969 180.121094 109.300781 L 180.125 109.292969 C 180.617188 109.394531 181.109375 109.292969 181.796875 109.097656 C 181.699219 108.507812 181.601562 108.015625 181.503906 107.523438 C 182.191406 107.71875 182.878906 107.621094 183.570312 107.328125 C 183.765625 106.539062 183.667969 105.753906 183.273438 105.0625 C 181.207031 105.65625 179.339844 106.539062 177.761719 107.820312 C 178.058594 108.3125 178.355469 108.703125 178.648438 109.195312 C 176.914062 109.433594 175.246094 109.859375 173.636719 110.523438 L 174.199219 109.882812 L 176.226562 107.640625 L 178.308594 105.429688 L 180.441406 103.246094 L 182.625 101.09375 L 184.855469 98.972656 L 187.140625 96.882812 L 189.472656 94.828125 L 191.855469 92.808594 L 194.285156 90.824219 L 196.765625 88.878906 L 199.289062 86.96875 L 201.863281 85.097656 L 204.480469 83.269531 L 207.144531 81.480469 L 209.152344 80.1875 C 216.921875 78.121094 224.675781 76.066406 232.46875 73.972656 C 231.710938 73.984375 230.949219 74.003906 230.191406 74.03125 C 237.097656 72.789062 244.144531 71.945312 251.304688 71.523438 Z M 113.800781 261.25 L 251.304688 261.25 L 251.304688 409.371094 L 250.953125 409.335938 L 248.191406 409.035156 L 245.429688 408.714844 L 242.671875 408.382812 L 239.917969 408.035156 L 237.164062 407.675781 L 234.410156 407.296875 L 231.660156 406.890625 L 228.910156 406.453125 L 226.160156 405.984375 L 223.417969 405.480469 L 220.675781 404.9375 L 217.941406 404.347656 L 215.214844 403.710938 L 212.5 403.019531 L 209.796875 402.277344 L 207.109375 401.472656 L 204.4375 400.605469 L 201.789062 399.667969 L 199.164062 398.664062 L 196.570312 397.582031 L 194.011719 396.425781 L 191.488281 395.1875 L 189.007812 393.863281 L 186.574219 392.457031 L 184.1875 390.976562 L 181.851562 389.414062 L 179.570312 387.777344 L 177.34375 386.066406 L 175.167969 384.292969 L 173.046875 382.457031 L 170.980469 380.566406 L 168.960938 378.628906 L 166.996094 376.648438 L 165.078125 374.625 L 163.207031 372.5625 L 161.382812 370.472656 L 159.601562 368.355469 L 157.863281 366.210938 L 156.171875 364.042969 L 154.515625 361.855469 L 152.90625 359.644531 L 151.335938 357.417969 L 149.804688 355.171875 L 148.3125 352.910156 L 146.859375 350.632812 L 145.445312 348.34375 L 144.066406 346.042969 L 142.722656 343.726562 L 141.414062 341.40625 L 140.136719 339.070312 L 138.898438 336.730469 L 137.6875 334.382812 L 136.507812 332.027344 L 135.359375 329.664062 L 134.238281 327.292969 L 133.148438 324.917969 L 132.082031 322.539062 L 131.046875 320.152344 L 130.035156 317.761719 L 129.046875 315.367188 L 128.082031 312.964844 L 127.148438 310.558594 L 126.238281 308.144531 L 125.351562 305.726562 L 124.492188 303.300781 L 123.652344 300.867188 L 122.835938 298.429688 L 122.042969 295.984375 L 121.277344 293.53125 L 120.535156 291.074219 L 119.816406 288.605469 L 119.125 286.128906 L 118.460938 283.644531 L 117.820312 281.148438 L 117.210938 278.648438 L 116.625 276.136719 L 116.070312 273.613281 L 115.542969 271.082031 L 115.046875 268.542969 L 114.578125 265.992188 L 114.144531 263.433594 Z M 113.800781 261.25 "/>
<path fill-rule="nonzero" fill="rgb(11.369324%, 45.098877%, 38.819885%)" fill-opacity="1" d="M 92.011719 103.40625 C 95.121094 99.742188 98.566406 94.851562 96.34375 90.519531 C 108.785156 83.1875 119.78125 73.523438 128.78125 62.191406 C 123.894531 66.078125 118.5625 69.1875 112.898438 71.632812 C 155.445312 29.640625 219.433594 10.53125 278.199219 22.308594 C 230.875 20.53125 182.660156 33.082031 143.558594 59.746094 C 104.34375 86.296875 74.570312 127.070312 63.125 173.0625 C 80.457031 122.734375 117.007812 79.300781 163.664062 53.746094 C 160 57.523438 156.332031 61.414062 152.554688 65.191406 C 170.332031 57.859375 186.4375 46.859375 204.101562 39.195312 C 255.980469 16.53125 318.414062 25.085938 366.738281 54.636719 C 415.0625 84.1875 449.835938 132.621094 470.054688 185.503906 C 478.941406 208.609375 485.160156 234.273438 477.273438 257.710938 C 475.496094 227.164062 465.5 197.722656 452.5 170.0625 C 430.949219 123.957031 400.066406 80.742188 356.628906 54.304688 C 313.191406 27.972656 255.757812 20.976562 211.320312 45.75 C 234.097656 43.304688 257.089844 41.972656 279.644531 45.195312 C 322.082031 51.191406 361.296875 73.410156 391.066406 104.183594 C 420.730469 135.066406 441.28125 174.0625 453.390625 215.054688 C 465.164062 255.15625 469.054688 299.371094 453.945312 338.476562 C 498.046875 267.15625 490.71875 167.839844 436.835938 103.738281 C 414.285156 76.964844 385.070312 56.414062 353.519531 41.527344 C 317.082031 24.417969 277.089844 14.53125 236.875 15.644531 C 196.660156 16.753906 156.445312 29.308594 124.339844 53.523438 C 151 29.972656 185.773438 16.640625 221.097656 12.976562 C 256.539062 9.421875 292.421875 15.199219 326.078125 26.53125 C 396.066406 50.304688 459.835938 102.738281 480.386719 173.726562 C 485.605469 191.945312 487.941406 210.832031 490.050781 229.71875 C 491.828125 246.046875 493.273438 262.378906 492.9375 278.820312 C 491.382812 360.03125 439.503906 439.347656 363.851562 469.007812 C 342.410156 477.339844 319.75 481.894531 296.972656 485.117188 C 260.539062 490.226562 222.765625 491.785156 187.660156 480.894531 C 169.550781 475.230469 152.667969 466.453125 137.003906 455.679688 C 72.125 411.242188 31.132812 333.8125 31.132812 255.15625 C 31.132812 241.160156 32.355469 227.273438 34.242188 213.496094 C 35.910156 200.832031 38.132812 188.28125 41.796875 176.0625 C 47.351562 158.0625 56.015625 141.066406 67.460938 126.070312 C 69.460938 124.847656 71.457031 123.515625 73.347656 122.179688 C 47.019531 177.835938 31.355469 243.605469 55.460938 300.371094 C 46.796875 263.378906 46.242188 224.605469 53.90625 187.503906 C 56.351562 186.613281 58.796875 185.613281 61.125 184.613281 C 61.238281 182.171875 61.351562 179.835938 61.460938 177.394531 C 59.683594 179.390625 58.015625 181.390625 56.238281 183.28125 C 60.351562 153.84375 73.015625 125.957031 92.011719 103.40625 M 109.894531 101.960938 L 130.558594 87.964844 C 126.226562 96.742188 118.226562 103.628906 108.894531 106.738281 C 65.570312 151.507812 52.238281 218.277344 57.351562 280.265625 C 59.351562 303.703125 64.125 328.035156 79.234375 346.03125 C 68.679688 302.707031 68.125 256.9375 77.792969 213.386719 C 79.679688 213.277344 80.347656 215.722656 80.347656 217.609375 C 81.121094 246.824219 76.125 276.042969 78.234375 305.261719 C 80.347656 334.367188 91.234375 365.140625 115.671875 381.023438 C 134.78125 393.46875 153.777344 405.910156 172.773438 418.351562 C 128.335938 404.132812 89.566406 373.25 65.570312 333.257812 C 72.015625 350.699219 81.011719 367.25 92.121094 382.136719 C 90.679688 378.136719 89.34375 374.027344 87.898438 369.917969 C 99.121094 380.46875 110.453125 390.800781 121.671875 401.246094 C 129.890625 408.910156 142.777344 416.6875 151.222656 409.355469 C 152.554688 412.132812 150.109375 415.574219 147.113281 416.351562 C 144.113281 417.242188 140.890625 416.351562 137.890625 415.464844 C 151.332031 425.128906 165.332031 434.015625 179.773438 442.125 C 177.664062 442.460938 176.996094 445.570312 178.328125 447.347656 C 179.664062 449.125 181.882812 449.570312 183.992188 450.125 C 236.984375 461.566406 293.417969 457.347656 344.074219 437.792969 C 300.527344 448.015625 254.09375 450.347656 211.878906 435.570312 C 176.21875 423.128906 145 398.578125 124.5625 366.914062 C 118.007812 356.695312 112.5625 345.917969 107.5625 334.921875 C 91.453125 298.707031 81.234375 259.15625 84.125 219.605469 C 87.011719 180.058594 104.339844 140.621094 135.449219 116.183594 C 138.667969 113.625 142.667969 111.183594 146.667969 112.183594 C 116.007812 134.402344 97.789062 171.171875 93.011719 208.722656 C 88.234375 246.378906 96.007812 284.597656 109.675781 319.925781 C 119.449219 344.921875 132.449219 369.136719 150.335938 389.132812 C 158 397.6875 166.664062 405.464844 176.550781 411.351562 C 194.660156 422.242188 216.097656 426.351562 237.09375 429.015625 C 265.648438 432.683594 294.417969 434.238281 323.191406 433.570312 C 286.863281 442.125 248.871094 436.015625 212.101562 429.90625 C 274.535156 453.347656 347.742188 439.015625 401.398438 399.578125 C 412.0625 391.691406 422.171875 382.914062 430.285156 372.359375 C 442.726562 356.140625 450.167969 336.367188 453.945312 316.257812 C 463.722656 263.824219 449.722656 209.054688 424.285156 162.0625 C 406.621094 129.402344 383.179688 99.183594 352.296875 78.632812 C 323.414062 59.523438 289.085938 49.414062 254.535156 47.527344 C 201.433594 44.414062 145.222656 61.96875 109.894531 101.960938 M 214.210938 462.789062 C 238.09375 468.789062 262.203125 473.121094 286.644531 476.007812 C 256.648438 482.894531 225.765625 472.34375 196.769531 462.011719 C 179.664062 456.011719 162.332031 449.792969 146.445312 440.90625 C 108.007812 419.574219 79.125 383.023438 62.351562 342.363281 C 59.460938 335.144531 56.792969 327.921875 54.574219 320.589844 C 54.351562 319.703125 53.683594 321.8125 54.574219 321.371094 C 55.460938 321.035156 55.351562 319.703125 54.90625 318.8125 C 44.910156 294.707031 38.796875 268.824219 36.910156 242.824219 C 35.023438 282.152344 44.796875 321.703125 62.570312 356.917969 C 81.902344 395.246094 110.898438 428.90625 147.335938 451.679688 C 183.660156 474.453125 227.429688 486.007812 270.089844 481.894531 C 330.082031 476.007812 382.738281 441.015625 431.0625 405.132812 C 409.730469 433.347656 377.40625 450.792969 345.964844 467.234375 C 400.289062 452.011719 443.835938 409.019531 470.054688 359.03125 C 457.058594 381.246094 436.726562 398.6875 414.621094 411.796875 C 392.402344 424.90625 368.074219 434.015625 343.742188 442.792969 C 333.078125 446.679688 322.304688 450.457031 311.304688 453.566406 C 279.867188 462.566406 246.761719 465.679688 214.210938 462.789062 M 436.394531 387.691406 C 441.949219 382.46875 447.394531 377.136719 451.835938 371.136719 C 458.835938 361.472656 463.5 350.253906 467.945312 339.140625 C 473.941406 324.035156 480.050781 308.816406 481.605469 292.597656 C 478.71875 295.152344 477.71875 298.929688 476.609375 302.59375 C 461.832031 353.808594 425.285156 398.464844 377.847656 422.90625 C 400.179688 417.90625 419.394531 403.355469 436.394531 387.691406 M 164.886719 442.125 C 167.21875 442.679688 170.109375 443.679688 170.21875 446.015625 C 171.109375 444.460938 173.773438 444.460938 174.773438 446.015625 C 175.21875 445.902344 174.882812 445.125 174.328125 444.902344 C 170.996094 443.125 167.664062 441.347656 164.441406 439.570312 C 151 432.351562 138.667969 423.351562 127.671875 412.90625 C 126.339844 415.796875 127.339844 419.460938 129.894531 421.242188 L 144.558594 431.90625 C 150.445312 436.792969 157.445312 440.347656 164.886719 442.125 M 485.71875 274.152344 C 485.273438 282.375 484.828125 290.707031 484.273438 298.929688 C 484.164062 300.039062 484.164062 301.148438 484.164062 302.261719 C 484.050781 304.261719 483.941406 306.261719 483.71875 308.148438 C 483.609375 310.59375 483.496094 312.8125 483.496094 315.257812 C 488.164062 296.371094 489.828125 276.597656 488.382812 257.269531 C 487.828125 257.046875 487.273438 256.710938 486.828125 256.378906 C 486.496094 262.265625 486.050781 268.15625 485.71875 274.152344 M 53.90625 152.398438 C 53.128906 153.84375 52.460938 155.285156 51.796875 156.730469 C 52.574219 157.730469 54.019531 156.507812 54.351562 155.285156 C 54.683594 154.175781 55.015625 152.617188 56.242188 152.507812 L 54.574219 150.84375 C 54.351562 151.289062 54.128906 151.953125 54.351562 152.398438 M 134.671875 60.191406 C 135.78125 59.300781 136.890625 58.414062 138.003906 57.414062 C 136.113281 56.636719 133.667969 57.636719 132.894531 59.636719 C 133.449219 59.859375 134.003906 60.082031 134.671875 60.191406 M 138.113281 54.96875 C 140.558594 55.527344 143.335938 54.859375 145.335938 53.191406 C 142.78125 53.082031 140.226562 53.636719 138.113281 54.96875 M 49.683594 167.730469 C 49.574219 167.171875 49.464844 166.617188 49.464844 166.171875 C 47.351562 166.949219 46.351562 169.839844 47.574219 171.726562 C 48.019531 170.285156 48.683594 168.949219 49.683594 167.730469 M 37.132812 224.386719 C 36.578125 225.164062 37.019531 226.496094 38.019531 226.609375 C 38.574219 224.828125 38.464844 222.941406 37.910156 221.050781 C 36.800781 221.605469 36.464844 223.164062 37.132812 224.164062 "/>
<path fill-rule="nonzero" fill="rgb(11.369324%, 45.098877%, 38.819885%)" fill-opacity="1" d="M 112.011719 72.183594 C 112.234375 72.519531 112.453125 72.964844 112.675781 73.296875 C 111.675781 74.738281 109.789062 75.40625 108.121094 74.960938 C 109.011719 73.738281 110.34375 72.851562 111.789062 72.519531 M 103.234375 79.296875 C 104.789062 78.738281 106.457031 78.40625 108.121094 78.515625 C 107.789062 80.960938 103.675781 81.628906 102.679688 79.296875 M 97.679688 74.183594 C 98.679688 72.628906 100.566406 71.519531 102.566406 71.738281 C 103.011719 72.851562 102.679688 74.183594 101.789062 74.960938 C 100.234375 75.183594 98.347656 75.40625 97.234375 74.183594 M 409.070312 81.515625 C 409.734375 81.40625 410.402344 82.070312 410.292969 82.738281 C 410.179688 83.40625 409.402344 83.851562 408.738281 83.628906 C 407.738281 82.515625 406.738281 81.292969 405.738281 80.074219 C 406.847656 79.183594 408.847656 79.960938 409.070312 81.292969 M 107.675781 65.074219 C 108.457031 64.1875 110.011719 64.1875 110.898438 64.964844 C 109.453125 66.410156 107.566406 67.40625 105.566406 68.074219 C 105.34375 66.851562 106.457031 65.410156 107.675781 65.519531 M 89.460938 168.390625 C 90.457031 166.945312 93.125 167.5 93.457031 169.28125 C 92.125 169.058594 90.679688 169.503906 89.792969 170.5 C 89.234375 170.722656 88.347656 170.28125 88.347656 169.613281 C 88.234375 169.058594 88.902344 168.390625 89.570312 168.5 M 153.003906 97.292969 C 153.558594 97.070312 154.335938 96.847656 154.890625 97.070312 C 155.558594 97.292969 155.890625 98.292969 155.449219 98.738281 C 153.335938 100.066406 150.890625 100.847656 148.449219 100.957031 C 149.558594 99.402344 151.226562 98.179688 153.003906 97.292969 M 185.777344 444.457031 C 186.886719 445.230469 188.105469 446.011719 189.21875 446.789062 C 186.773438 447.789062 183.886719 447.230469 181.886719 445.453125 C 181.441406 444.675781 182.332031 443.566406 183.109375 443.566406 C 184.109375 443.457031 184.996094 444.011719 185.777344 444.457031 M 135.007812 87.070312 C 134.453125 85.40625 134.894531 83.40625 136.226562 82.183594 C 137.117188 81.960938 138.003906 81.292969 138.339844 80.292969 C 139.78125 80.851562 141.117188 81.40625 142.5625 81.960938 C 140.117188 83.628906 137.5625 85.292969 135.007812 87.070312 M 80.792969 206.386719 L 80.792969 204.386719 C 81.90625 203.828125 83.125 203.828125 84.125 204.273438 C 82.125 206.386719 81.015625 209.273438 81.238281 212.160156 C 80.015625 211.273438 78.683594 210.273438 77.347656 209.382812 C 78.460938 208.496094 79.683594 207.496094 80.90625 206.496094 M 73.460938 108.289062 C 73.90625 104.847656 75.90625 101.734375 78.683594 99.625 C 79.460938 99.070312 80.683594 98.738281 81.125 99.511719 C 78.683594 101.957031 76.683594 104.734375 75.238281 107.84375 C 74.90625 108.402344 74.015625 108.734375 73.460938 108.289062 M 84.90625 177.167969 C 87.125 175.5 89.234375 173.835938 91.457031 172.167969 C 90.902344 174.277344 90.347656 176.167969 89.792969 178.277344 C 89.015625 178.722656 88.460938 179.5 87.679688 179.945312 C 86.902344 180.390625 85.792969 180.5 85.238281 179.722656 C 84.792969 178.945312 86.015625 177.832031 86.460938 178.613281 C 86.015625 178.167969 85.460938 177.722656 84.90625 177.167969 M 169.554688 91.070312 C 169.332031 91.625 169.109375 92.183594 169.332031 92.847656 C 167.664062 93.160156 165.996094 93.492188 164.335938 93.847656 C 164.113281 94.515625 163.890625 95.183594 163.667969 95.847656 C 162.335938 95.738281 161 95.738281 159.777344 95.738281 C 158.667969 95.179688 159.777344 93.625 160.890625 93.070312 C 163.113281 91.960938 165.445312 91.292969 167.890625 90.960938 C 167.554688 90.402344 167.222656 89.960938 166.890625 89.40625 C 168.667969 87.960938 170.777344 86.960938 173.109375 86.292969 C 173.554688 87.070312 173.664062 87.960938 173.445312 88.847656 C 172.664062 89.183594 171.890625 89.292969 171.109375 89.070312 C 171.222656 89.625 171.332031 90.179688 171.445312 90.847656 C 170.664062 91.070312 170.109375 91.179688 169.554688 91.070312 M 82.683594 101.511719 C 83.570312 100.957031 84.792969 100.734375 85.792969 100.957031 C 85.347656 100.402344 85.015625 99.847656 84.679688 99.292969 C 85.792969 99.070312 86.902344 98.847656 88.125 98.738281 C 88.570312 97.625 88.570312 96.292969 88.125 95.179688 C 89.347656 95.070312 90.679688 95.292969 91.792969 95.734375 C 92.125 96.183594 92.234375 96.847656 92.125 97.402344 C 91.570312 97.625 90.902344 97.847656 90.234375 98.070312 C 90.015625 99.179688 89.679688 100.292969 89.460938 101.402344 C 88.902344 101.734375 88.015625 101.847656 87.347656 101.625 C 86.347656 107.625 79.792969 111.066406 77.460938 116.621094 C 76.683594 118.511719 75.90625 120.953125 73.90625 120.953125 C 73.351562 120.289062 73.460938 119.066406 74.238281 118.511719 C 73.460938 118.289062 72.792969 118.066406 72.128906 117.84375 C 72.019531 116.621094 74.015625 116.953125 75.015625 117.734375 C 75.90625 116.953125 75.128906 115.179688 74.015625 115.179688 C 75.238281 114.179688 76.015625 112.625 76.238281 111.066406 C 77.460938 111.179688 78.683594 110.734375 79.460938 109.84375 C 78.570312 110.066406 77.570312 109.402344 77.347656 108.402344 C 79.128906 108.734375 80.90625 107.066406 80.792969 105.289062 L 84.792969 102.957031 C 84.238281 102.625 83.460938 102.070312 82.683594 101.511719 M 431.621094 107.402344 C 429.175781 104.066406 426.621094 100.847656 423.511719 98.070312 C 419.179688 94.179688 413.625 90.738281 412.734375 84.960938 C 438.839844 107.066406 458.949219 136.285156 470.167969 168.613281 C 471.171875 169.503906 470.058594 171.5 468.835938 171.167969 C 459.058594 148.617188 446.507812 127.066406 431.621094 107.402344 "/>
<path fill-rule="nonzero" fill="rgb(11.369324%, 45.098877%, 38.819885%)" fill-opacity="1" d="M 138.335938 89.859375 C 142.890625 86.195312 148.113281 82.75 150.003906 77.195312 C 150.558594 75.640625 152.113281 74.417969 153.558594 73.53125 C 176 59.421875 202.21875 51.644531 228.65625 51.199219 C 215.4375 54.753906 202.328125 58.199219 189.109375 61.753906 C 168.554688 67.199219 153.445312 84.195312 139.558594 100.414062 C 127.5625 114.523438 115.453125 128.632812 103.453125 142.851562 C 102.007812 146.742188 100.675781 150.742188 99.230469 154.628906 C 98.675781 156.40625 98.007812 158.183594 96.453125 159.296875 C 95.007812 160.40625 92.566406 160.40625 91.675781 158.738281 C 97.007812 149.40625 102.34375 139.964844 107.785156 130.523438 C 116.453125 115.859375 125.117188 100.746094 138.335938 89.859375 "/>
<path fill-rule="nonzero" fill="rgb(50.588989%, 66.268921%, 84.309387%)" fill-opacity="1" d="M 41.398438 621.996094 L 31.007812 621.996094 L 31.007812 602.5625 L 30.675781 602.5625 C 29.777344 603.941406 28.554688 605.050781 27.003906 605.882812 C 25.453125 606.703125 23.457031 607.113281 21.007812 607.113281 C 16.046875 607.113281 12.246094 605.433594 9.601562 602.074219 C 6.957031 598.714844 5.636719 593.625 5.636719 586.800781 C 5.636719 579.652344 7.433594 574.242188 11.027344 570.570312 C 14.632812 566.886719 19.796875 565.042969 26.515625 565.042969 C 27.960938 565.042969 29.398438 565.109375 30.832031 565.238281 C 32.277344 565.367188 33.652344 565.558594 34.953125 565.804688 C 36.269531 566.039062 37.484375 566.304688 38.605469 566.605469 C 39.726562 566.890625 40.65625 567.171875 41.398438 567.445312 Z M 23.800781 598.324219 C 25.832031 598.324219 27.394531 597.875 28.488281 596.976562 C 29.582031 596.066406 30.421875 594.699219 31.007812 592.875 L 31.007812 574.886719 C 30.199219 574.457031 29.289062 574.175781 28.273438 574.046875 C 27.269531 573.902344 26.125 573.832031 24.835938 573.832031 C 22.011719 573.832031 19.886719 574.898438 18.46875 577.035156 C 17.0625 579.171875 16.359375 582.289062 16.359375 586.390625 C 16.359375 590.285156 16.996094 593.246094 18.273438 595.277344 C 19.5625 597.308594 21.40625 598.324219 23.800781 598.324219 Z M 58.929688 566 L 58.929688 588.714844 C 58.929688 591.96875 59.316406 594.320312 60.082031 595.765625 C 60.863281 597.199219 62.375 597.914062 64.613281 597.914062 C 66.59375 597.914062 68.234375 597.328125 69.535156 596.15625 C 70.851562 594.984375 71.828125 593.546875 72.464844 591.839844 L 72.464844 566 L 82.855469 566 L 82.855469 593.832031 C 82.855469 596.019531 82.960938 598.167969 83.167969 600.277344 C 83.390625 602.386719 83.714844 604.292969 84.144531 606 L 76.292969 606 L 74.457031 600.082031 L 74.144531 600.082031 C 72.921875 602.113281 71.214844 603.792969 69.027344 605.121094 C 66.839844 606.449219 64.25 607.113281 61.253906 607.113281 C 59.238281 607.113281 57.425781 606.847656 55.824219 606.3125 C 54.222656 605.777344 52.890625 604.898438 51.820312 603.675781 C 50.753906 602.453125 49.941406 600.804688 49.378906 598.734375 C 48.820312 596.652344 48.539062 594.035156 48.539062 590.882812 L 48.539062 566 Z M 90.234375 568.324219 C 92.371094 567.359375 94.90625 566.597656 97.832031 566.039062 C 100.777344 565.480469 103.84375 565.199219 107.03125 565.199219 C 109.808594 565.199219 112.125 565.53125 113.984375 566.195312 C 115.859375 566.859375 117.34375 567.808594 118.4375 569.046875 C 119.53125 570.269531 120.308594 571.734375 120.765625 573.441406 C 121.21875 575.148438 121.449219 577.066406 121.449219 579.203125 C 121.449219 581.546875 121.363281 583.910156 121.191406 586.292969 C 121.035156 588.664062 120.945312 590.992188 120.921875 593.285156 C 120.894531 595.578125 120.957031 597.804688 121.113281 599.964844 C 121.285156 602.125 121.6875 604.164062 122.328125 606.078125 L 113.847656 606.078125 L 112.152344 600.550781 L 111.761719 600.550781 C 110.691406 602.203125 109.207031 603.636719 107.308594 604.847656 C 105.417969 606.046875 102.984375 606.644531 100 606.644531 C 98.140625 606.644531 96.460938 606.363281 94.964844 605.804688 C 93.464844 605.246094 92.183594 604.445312 91.113281 603.402344 C 90.046875 602.359375 89.21875 601.136719 88.636719 599.730469 C 88.046875 598.3125 87.753906 596.722656 87.753906 594.964844 C 87.753906 592.503906 88.300781 590.433594 89.394531 588.753906 C 90.488281 587.074219 92.066406 585.71875 94.125 584.691406 C 96.179688 583.648438 98.636719 582.925781 101.484375 582.523438 C 104.339844 582.121094 107.519531 581.996094 111.035156 582.152344 C 111.414062 579.171875 111.199219 577.027344 110.390625 575.726562 C 109.597656 574.410156 107.8125 573.753906 105.042969 573.753906 C 102.957031 573.753906 100.757812 573.96875 98.4375 574.398438 C 96.121094 574.828125 94.214844 575.386719 92.71875 576.078125 Z M 103.4375 598.070312 C 105.523438 598.070312 107.175781 597.609375 108.402344 596.683594 C 109.625 595.746094 110.53125 594.742188 111.113281 593.675781 L 111.113281 588.480469 C 109.460938 588.324219 107.875 588.296875 106.347656 588.402344 C 104.839844 588.507812 103.5 588.746094 102.328125 589.125 C 101.15625 589.488281 100.21875 590.023438 99.515625 590.726562 C 98.824219 591.417969 98.480469 592.296875 98.480469 593.363281 C 98.480469 594.859375 98.914062 596.019531 99.785156 596.839844 C 100.671875 597.660156 101.890625 598.070312 103.4375 598.070312 Z M 150.742188 575.765625 C 149.085938 575.179688 147.597656 574.886719 146.269531 574.886719 C 144.394531 574.886719 142.832031 575.382812 141.582031 576.371094 C 140.332031 577.347656 139.492188 578.609375 139.0625 580.160156 L 139.0625 606 L 128.652344 606 L 128.652344 566 L 136.738281 566 L 137.949219 571.273438 L 138.261719 571.273438 C 139.171875 569.308594 140.394531 567.789062 141.933594 566.722656 C 143.480469 565.65625 145.296875 565.121094 147.382812 565.121094 C 148.761719 565.121094 150.335938 565.414062 152.109375 566 Z M 153.46875 566 L 158.996094 566 L 158.996094 558.480469 L 169.40625 555.511719 L 169.40625 566 L 179.152344 566 L 179.152344 574.808594 L 169.40625 574.808594 L 169.40625 590.160156 C 169.40625 592.933594 169.6875 594.917969 170.246094 596.117188 C 170.808594 597.316406 171.855469 597.914062 173.390625 597.914062 C 174.460938 597.914062 175.378906 597.808594 176.144531 597.601562 C 176.925781 597.394531 177.800781 597.074219 178.761719 596.644531 L 180.597656 604.632812 C 179.152344 605.335938 177.472656 605.921875 175.558594 606.390625 C 173.644531 606.871094 171.699219 607.113281 169.71875 607.113281 C 166.035156 607.113281 163.328125 606.167969 161.59375 604.28125 C 159.863281 602.394531 158.996094 599.289062 158.996094 594.964844 L 158.996094 574.808594 L 153.46875 574.808594 Z M 181.738281 586 C 181.738281 579.230469 183.390625 574.019531 186.699219 570.375 C 190.003906 566.714844 194.648438 564.886719 200.625 564.886719 C 203.828125 564.886719 206.601562 565.394531 208.945312 566.410156 C 211.289062 567.414062 213.234375 568.839844 214.785156 570.6875 C 216.332031 572.523438 217.492188 574.75 218.261719 577.367188 C 219.027344 579.972656 219.414062 582.847656 219.414062 586 C 219.414062 592.769531 217.773438 597.984375 214.492188 601.644531 C 211.222656 605.289062 206.601562 607.113281 200.625 607.113281 C 197.421875 607.113281 194.648438 606.613281 192.304688 605.609375 C 189.960938 604.59375 188 603.167969 186.425781 601.332031 C 184.847656 599.484375 183.671875 597.257812 182.890625 594.652344 C 182.121094 592.035156 181.738281 589.152344 181.738281 586 Z M 192.460938 586 C 192.460938 587.757812 192.617188 589.386719 192.929688 590.882812 C 193.253906 592.378906 193.734375 593.6875 194.375 594.808594 C 195.011719 595.929688 195.851562 596.792969 196.894531 597.40625 C 197.933594 598.019531 199.179688 598.324219 200.625 598.324219 C 203.34375 598.324219 205.371094 597.339844 206.699219 595.375 C 208.039062 593.394531 208.710938 590.269531 208.710938 586 C 208.710938 582.316406 208.089844 579.339844 206.855469 577.074219 C 205.628906 574.808594 203.554688 573.675781 200.625 573.675781 C 198.058594 573.675781 196.054688 574.640625 194.609375 576.566406 C 193.175781 578.480469 192.460938 581.625 192.460938 586 Z M 192.460938 586 "/>
<path fill-rule="nonzero" fill="rgb(5.099487%, 6.669617%, 9.01947%)" fill-opacity="1" d="M 229.316406 578.402344 L 249.394531 578.402344 L 249.394531 587.601562 L 229.316406 587.601562 Z M 229.316406 578.402344 "/>
<path fill-rule="nonzero" fill="rgb(11.369324%, 45.098877%, 38.819885%)" fill-opacity="1" d="M 284.285156 606 L 284.285156 584.242188 C 284.285156 580.558594 283.933594 577.945312 283.230469 576.410156 C 282.539062 574.859375 281.101562 574.085938 278.914062 574.085938 C 277.105469 574.085938 275.640625 574.582031 274.519531 575.570312 C 273.398438 576.546875 272.546875 577.808594 271.960938 579.359375 L 271.960938 606 L 261.550781 606 L 261.550781 566 L 269.636719 566 L 270.847656 571.273438 L 271.160156 571.273438 C 272.382812 569.566406 273.941406 568.078125 275.828125 566.800781 C 277.730469 565.523438 280.171875 564.886719 283.152344 564.886719 C 285.71875 564.886719 287.8125 565.40625 289.441406 566.449219 C 291.070312 567.476562 292.332031 569.222656 293.230469 571.683594 C 294.46875 569.601562 296.042969 567.945312 297.957031 566.722656 C 299.882812 565.5 302.203125 564.886719 304.910156 564.886719 C 307.164062 564.886719 309.070312 565.152344 310.632812 565.6875 C 312.207031 566.222656 313.492188 567.140625 314.480469 568.441406 C 315.46875 569.742188 316.199219 571.488281 316.667969 573.675781 C 317.148438 575.863281 317.390625 578.636719 317.390625 581.996094 L 317.390625 606 L 307 606 L 307 583.519531 C 307 580.367188 306.667969 578.011719 306.003906 576.449219 C 305.339844 574.875 303.855469 574.085938 301.550781 574.085938 C 299.6875 574.085938 298.210938 574.59375 297.117188 575.609375 C 296.023438 576.613281 295.210938 578 294.675781 579.769531 L 294.675781 606 Z M 324.214844 568.324219 C 326.351562 567.359375 328.882812 566.597656 331.8125 566.039062 C 334.757812 565.480469 337.824219 565.199219 341.011719 565.199219 C 343.785156 565.199219 346.105469 565.53125 347.964844 566.195312 C 349.839844 566.859375 351.324219 567.808594 352.417969 569.046875 C 353.511719 570.269531 354.289062 571.734375 354.742188 573.441406 C 355.199219 575.148438 355.425781 577.066406 355.425781 579.203125 C 355.425781 581.546875 355.34375 583.910156 355.171875 586.292969 C 355.015625 588.664062 354.925781 590.992188 354.898438 593.285156 C 354.875 595.578125 354.9375 597.804688 355.09375 599.964844 C 355.265625 602.125 355.667969 604.164062 356.304688 606.078125 L 347.828125 606.078125 L 346.128906 600.550781 L 345.738281 600.550781 C 344.671875 602.203125 343.1875 603.636719 341.285156 604.847656 C 339.398438 606.046875 336.964844 606.644531 333.980469 606.644531 C 332.121094 606.644531 330.441406 606.363281 328.941406 605.804688 C 327.445312 605.246094 326.164062 604.445312 325.09375 603.402344 C 324.027344 602.359375 323.199219 601.136719 322.613281 599.730469 C 322.027344 598.3125 321.734375 596.722656 321.734375 594.964844 C 321.734375 592.503906 322.28125 590.433594 323.375 588.753906 C 324.46875 587.074219 326.046875 585.71875 328.101562 584.691406 C 330.160156 583.648438 332.613281 582.925781 335.464844 582.523438 C 338.316406 582.121094 341.5 581.996094 345.015625 582.152344 C 345.394531 579.171875 345.179688 577.027344 344.371094 575.726562 C 343.578125 574.410156 341.792969 573.753906 339.019531 573.753906 C 336.9375 573.753906 334.738281 573.96875 332.417969 574.398438 C 330.101562 574.828125 328.195312 575.386719 326.695312 576.078125 Z M 337.417969 598.070312 C 339.503906 598.070312 341.15625 597.609375 342.378906 596.683594 C 343.605469 595.746094 344.507812 594.742188 345.09375 593.675781 L 345.09375 588.480469 C 343.441406 588.324219 341.851562 588.296875 340.328125 588.402344 C 338.820312 588.507812 337.476562 588.746094 336.304688 589.125 C 335.132812 589.488281 334.195312 590.023438 333.492188 590.726562 C 332.804688 591.417969 332.457031 592.296875 332.457031 593.363281 C 332.457031 594.859375 332.894531 596.019531 333.765625 596.839844 C 334.652344 597.660156 335.871094 598.070312 337.417969 598.070312 Z M 384.71875 575.765625 C 383.066406 575.179688 381.574219 574.886719 380.246094 574.886719 C 378.371094 574.886719 376.808594 575.382812 375.558594 576.371094 C 374.308594 577.347656 373.46875 578.609375 373.039062 580.160156 L 373.039062 606 L 362.628906 606 L 362.628906 566 L 370.714844 566 L 371.925781 571.273438 L 372.238281 571.273438 C 373.152344 569.308594 374.375 567.789062 375.910156 566.722656 C 377.460938 565.65625 379.277344 565.121094 381.359375 565.121094 C 382.742188 565.121094 384.316406 565.414062 386.085938 566 Z M 390.109375 566 L 400.5 566 L 400.5 606 L 390.109375 606 Z M 388.585938 554.710938 C 388.585938 553.175781 389.160156 551.859375 390.304688 550.765625 C 391.449219 549.671875 393.039062 549.125 395.070312 549.125 C 397.089844 549.125 398.722656 549.671875 399.972656 550.765625 C 401.234375 551.859375 401.867188 553.175781 401.867188 554.710938 C 401.867188 556.261719 401.234375 557.554688 399.972656 558.597656 C 398.722656 559.640625 397.089844 560.160156 395.070312 560.160156 C 393.039062 560.160156 391.449219 559.640625 390.304688 558.597656 C 389.160156 557.554688 388.585938 556.261719 388.585938 554.710938 Z M 431.964844 606 L 431.964844 584.242188 C 431.964844 580.558594 431.613281 577.945312 430.910156 576.410156 C 430.21875 574.859375 428.78125 574.085938 426.59375 574.085938 C 424.785156 574.085938 423.320312 574.582031 422.199219 575.570312 C 421.078125 576.546875 420.226562 577.808594 419.640625 579.359375 L 419.640625 606 L 409.230469 606 L 409.230469 566 L 417.316406 566 L 418.527344 571.273438 L 418.839844 571.273438 C 420.0625 569.566406 421.621094 568.078125 423.507812 566.800781 C 425.410156 565.523438 427.851562 564.886719 430.832031 564.886719 C 433.398438 564.886719 435.492188 565.40625 437.121094 566.449219 C 438.75 567.476562 440.011719 569.222656 440.910156 571.683594 C 442.148438 569.601562 443.722656 567.945312 445.636719 566.722656 C 447.5625 565.5 449.882812 564.886719 452.589844 564.886719 C 454.84375 564.886719 456.75 565.152344 458.3125 565.6875 C 459.886719 566.222656 461.171875 567.140625 462.160156 568.441406 C 463.148438 569.742188 463.878906 571.488281 464.347656 573.675781 C 464.828125 575.863281 465.070312 578.636719 465.070312 581.996094 L 465.070312 606 L 454.679688 606 L 454.679688 583.519531 C 454.679688 580.367188 454.347656 578.011719 453.683594 576.449219 C 453.019531 574.875 451.535156 574.085938 449.230469 574.085938 C 447.367188 574.085938 445.890625 574.59375 444.796875 575.609375 C 443.703125 576.613281 442.890625 578 442.355469 579.769531 L 442.355469 606 Z M 470.214844 586 C 470.214844 579.230469 471.871094 574.019531 475.175781 570.375 C 478.484375 566.714844 483.125 564.886719 489.101562 564.886719 C 492.304688 564.886719 495.078125 565.394531 497.421875 566.410156 C 499.765625 567.414062 501.714844 568.839844 503.261719 570.6875 C 504.8125 572.523438 505.972656 574.75 506.738281 577.367188 C 507.507812 579.972656 507.890625 582.847656 507.890625 586 C 507.890625 592.769531 506.25 597.984375 502.96875 601.644531 C 499.703125 605.289062 495.078125 607.113281 489.101562 607.113281 C 485.898438 607.113281 483.125 606.613281 480.78125 605.609375 C 478.4375 604.59375 476.480469 603.167969 474.902344 601.332031 C 473.328125 599.484375 472.148438 597.257812 471.367188 594.652344 C 470.601562 592.035156 470.214844 589.152344 470.214844 586 Z M 480.9375 586 C 480.9375 587.757812 481.09375 589.386719 481.40625 590.882812 C 481.734375 592.378906 482.214844 593.6875 482.851562 594.808594 C 483.492188 595.929688 484.332031 596.792969 485.371094 597.40625 C 486.414062 598.019531 487.65625 598.324219 489.101562 598.324219 C 491.824219 598.324219 493.847656 597.339844 495.175781 595.375 C 496.519531 593.394531 497.1875 590.269531 497.1875 586 C 497.1875 582.316406 496.570312 579.339844 495.332031 577.074219 C 494.109375 574.808594 492.03125 573.675781 489.101562 573.675781 C 486.539062 573.675781 484.53125 574.640625 483.085938 576.566406 C 481.65625 578.480469 480.9375 581.625 480.9375 586 Z M 480.9375 586 "/>
</svg>
